<svg width="4879" height="867" viewBox="0 0 4879 867" fill="none" xmlns="http://www.w3.org/2000/svg">
<path d="M414.359 1.17712C412.476 1.31653 405.993 1.73486 400.067 2.15314C314.732 8.14886 230.583 41.3345 162.678 95.8538C144.551 110.355 121.753 132.177 107.182 148.909C46.1794 219.115 9.57762 304.728 1.6298 396.058C-6.80605 493.454 17.6649 590.222 71.3475 671.513C88.1495 696.96 104.185 716.481 126.425 738.791C144.621 757.057 155.706 766.678 174.53 780.9L182.199 786.617L182.408 697.657L182.547 608.628L177.458 600.819C166.861 584.645 155.776 563.451 148.874 545.952C122.59 479.371 120.568 405.749 143.157 337.844C158.146 292.737 181.502 254.531 214.896 220.439C265.651 168.779 328.745 138.172 401.6 129.946C414.638 128.482 449.218 128.273 461.418 129.597C472.364 130.782 486.168 132.874 494.534 134.617C502.133 136.151 518.517 140.334 521.585 141.519L523.467 142.286V281.582V420.878L527.511 421.715C534.692 423.109 583.006 433.009 584.819 433.427C586.004 433.706 575.895 436.076 555.189 440.329L523.816 446.673L523.607 558.71C523.537 620.34 523.746 670.746 524.025 670.746C525.349 670.746 548.147 658.894 556.025 654.084C590.396 633.168 620.793 602.911 641.778 568.819C644.497 564.357 647.704 558.849 648.889 556.479L651.051 552.296V306.192V60.0886L646.728 57.509C644.288 56.1147 637.665 52.4894 631.878 49.4915C581.751 23.4171 527.511 7.59113 470.482 2.50171C459.048 1.45599 422.098 0.619385 414.359 1.17712Z" fill="#20499E"/>
<path d="M683.818 170.661V259.83L689.744 268.824C695.251 277.329 703.827 292.11 703.618 292.877C703.548 293.086 704.036 293.992 704.733 294.968C705.361 295.944 707.243 299.5 708.916 302.986C723.766 334.637 732.969 367.544 736.943 402.682C738.337 415.649 738.128 455.737 736.594 468.565C728.646 532.357 703.199 589.177 661.438 636.236C617.168 686.154 558.605 719.967 493.907 733.144C471.248 737.745 461.279 738.652 433.88 738.721C408.293 738.721 402.925 738.373 383.334 735.166C372.667 733.493 356.772 729.867 347.639 727.148L342.898 725.754V586.388C342.898 454.273 342.828 447.022 341.713 446.674C341.016 446.534 326.863 443.606 310.27 440.26C290.54 436.216 280.501 433.915 281.337 433.567C282.034 433.288 295.769 430.36 311.874 427.083C327.978 423.806 341.573 421.018 342.061 420.809C342.689 420.599 342.898 396.686 342.898 304.659V188.858L341.016 189.346C336.623 190.391 318.915 197.851 309.433 202.522C274.017 220.021 244.456 243.795 219.916 274.61L215.314 280.467V544.209V807.951L219.358 810.252C234.975 819.106 253.799 828.309 268.649 834.305C271.368 835.42 273.668 836.466 273.877 836.675C274.087 836.884 274.714 837.093 275.272 837.233C275.829 837.372 279.315 838.557 282.941 839.952C289.146 842.252 307.133 848.318 309.433 848.876C309.991 849.015 314.523 850.27 319.473 851.595C389.121 870.837 467.623 871.743 537.759 853.965C542.36 852.849 546.474 851.804 546.822 851.734C547.241 851.664 549.402 850.967 551.703 850.27C554.003 849.573 556.374 848.945 556.931 848.876C557.489 848.806 558.465 848.527 559.023 848.318C559.581 848.039 566.064 845.808 573.315 843.368C665.9 811.925 747.191 747.436 799.689 663.775C835.663 606.328 857.066 543.582 864.038 474.84C865.572 460.06 866.199 422.621 865.154 407.214C857.973 299.151 813.005 200.849 736.315 125.484C719.932 109.31 697.204 90.1373 685.77 82.7473L683.818 81.4924V170.661Z" fill="#DD2D26"/>
<path d="M432.555 343.84C432.346 344.398 428.86 361.27 424.817 381.418C420.703 401.567 417.357 418.09 417.287 418.16C417.217 418.16 400.555 421.646 380.197 425.759C359.909 429.872 343.038 433.428 342.689 433.707C342.41 433.916 358.864 437.541 379.291 441.654C399.718 445.838 416.66 449.463 416.938 449.672C417.217 449.951 420.773 466.404 424.817 486.344C432.346 523.155 432.764 525.246 433.252 523.991C433.392 523.573 436.947 506.631 441.061 486.344L448.66 449.463L473.34 444.443C486.935 441.654 499.136 439.145 500.46 439.005C506.944 437.959 523.397 434.125 522.979 433.707C522.631 433.428 505.968 429.872 485.82 425.759C465.741 421.715 449.078 418.09 448.799 417.811C448.59 417.532 444.965 400.66 440.852 380.373C436.738 360.015 433.252 343.283 433.113 343.143C432.974 343.004 432.695 343.283 432.555 343.84Z" fill="#FFC107"/>
<path d="M1422.47 653V233H1512.43V653H1422.47ZM1158 653V233H1247.96V653H1158ZM1193.98 484.4L1194.58 402.8H1468.65V484.4H1193.98Z" fill="#292F36"/>
<path d="M1621.84 653V233H1799.95C1824.74 233 1847.13 239 1867.12 251C1887.51 262.6 1903.5 278.6 1915.1 299C1927.09 319.4 1933.09 342.4 1933.09 368C1933.09 394 1927.09 417.4 1915.1 438.2C1903.5 459 1887.51 475.6 1867.12 488C1847.13 500 1824.74 506 1799.95 506H1711.8V653H1621.84ZM1710.6 425H1789.76C1799.35 425 1807.95 422.6 1815.55 417.8C1823.14 412.6 1829.14 405.8 1833.54 397.4C1838.34 389 1840.73 379.4 1840.73 368.6C1840.73 357.8 1838.34 348.4 1833.54 340.4C1829.14 332 1823.14 325.6 1815.55 321.2C1807.95 316.4 1799.35 314 1789.76 314H1710.6V425Z" fill="#292F36"/>
<path d="M2197.75 659C2166.97 659 2138.58 653.8 2112.6 643.4C2087.01 632.6 2064.62 617.6 2045.43 598.4C2026.64 578.8 2012.04 555.8 2001.65 529.4C1991.25 502.6 1986.06 473.4 1986.06 441.8C1986.06 411 1991.45 382.6 2002.25 356.6C2013.04 330.2 2028.24 307.4 2047.83 288.2C2067.42 268.6 2090.41 253.4 2116.79 242.6C2143.18 231.8 2171.77 226.4 2202.55 226.4C2222.54 226.4 2242.13 229.2 2261.32 234.8C2280.91 240 2298.71 247.8 2314.7 258.2C2331.09 268.6 2345.08 281 2356.68 295.4L2300.31 357.8C2290.71 348.2 2280.71 340 2270.32 333.2C2260.32 326 2249.53 320.6 2237.94 317C2226.74 313 2214.75 311 2201.95 311C2184.76 311 2168.57 314.2 2153.38 320.6C2138.58 327 2125.59 336 2114.39 347.6C2103.2 358.8 2094.2 372.6 2087.41 389C2081.01 405 2077.81 422.8 2077.81 442.4C2077.81 462.4 2081.01 480.6 2087.41 497C2093.8 513 2102.8 526.8 2114.39 538.4C2125.99 549.6 2139.78 558.4 2155.78 564.8C2172.17 570.8 2190.16 573.8 2209.75 573.8C2222.54 573.8 2234.94 572 2246.93 568.4C2258.93 564.8 2269.92 559.8 2279.92 553.4C2290.31 547 2299.51 539.6 2307.5 531.2L2351.28 601.4C2341.69 612.2 2328.69 622 2312.3 630.8C2296.31 639.6 2278.32 646.6 2258.33 651.8C2238.34 656.6 2218.15 659 2197.75 659Z" fill="#292F36"/>
<path d="M2403.73 520.4V441.2H2599.83V520.4H2403.73Z" fill="#292F36"/>
<path d="M2635.61 653L2799.94 233H2880.3L3044.02 653H2951.66L2867.1 426.8C2864.7 420.4 2861.71 412.2 2858.11 402.2C2854.91 392.2 2851.51 381.6 2847.91 370.4C2844.31 359.2 2840.92 348.6 2837.72 338.6C2834.52 328.2 2832.12 319.6 2830.52 312.8L2846.71 312.2C2844.31 321.4 2841.52 331 2838.32 341C2835.52 350.6 2832.52 360.6 2829.32 371C2826.12 381 2822.72 390.8 2819.13 400.4C2815.53 410 2812.13 419.4 2808.93 428.6L2724.37 653H2635.61ZM2711.78 564.8L2741.16 492.2H2933.67L2963.66 564.8H2711.78Z" fill="#292F36"/>
<path d="M3092.17 653V575.6H3162.33V310.4H3092.17V233H3322.46V310.4H3252.29V575.6H3322.46V653H3092.17Z" fill="#292F36"/>
<path d="M3692.43 653V314H3570.09V233H3908.32V314H3782.39V653H3692.43Z" fill="#292F36"/>
<path d="M4061.42 659C4027.03 659 3997.05 652 3971.46 638C3945.87 624 3925.88 604.8 3911.49 580.4C3897.09 556 3889.9 528 3889.9 496.4C3889.9 472 3893.9 449.6 3901.89 429.2C3909.89 408.8 3921.08 391.2 3935.48 376.4C3949.87 361.2 3966.86 349.6 3986.45 341.6C4006.44 333.2 4028.03 329 4051.22 329C4072.81 329 4092.8 333 4111.19 341C4129.58 348.6 4145.37 359.6 4158.57 374C4172.16 388 4182.56 404.6 4189.75 423.8C4196.95 443 4200.15 464 4199.35 486.8L4198.75 513.2H3943.87L3930.08 461H4128.58L4118.99 471.8V458.6C4118.19 447.8 4114.59 438 4108.19 429.2C4102.2 420.4 4094.4 413.6 4084.8 408.8C4075.21 404 4064.41 401.6 4052.42 401.6C4034.83 401.6 4019.84 405 4007.44 411.8C3995.45 418.6 3986.25 428.6 3979.85 441.8C3973.46 455 3970.26 471 3970.26 489.8C3970.26 509 3974.26 525.6 3982.25 539.6C3990.65 553.6 4002.24 564.6 4017.04 572.6C4032.23 580.2 4050.02 584 4070.41 584C4084.4 584 4097.2 581.8 4108.79 577.4C4120.39 573 4132.78 565.4 4145.97 554.6L4186.75 611.6C4175.16 622 4162.37 630.8 4148.37 638C4134.38 644.8 4119.99 650 4105.19 653.6C4090.4 657.2 4075.81 659 4061.42 659Z" fill="#292F36"/>
<path d="M4400.21 659C4369.83 659 4342.64 651.8 4318.65 637.4C4294.67 623 4275.67 603.4 4261.68 578.6C4248.09 553.8 4241.29 525.6 4241.29 494C4241.29 462.8 4248.09 434.8 4261.68 410C4275.67 384.8 4294.67 365 4318.65 350.6C4342.64 336.2 4369.83 329 4400.21 329C4428.6 329 4454.59 334.2 4478.18 344.6C4501.77 355 4520.16 369.4 4533.35 387.8L4486.57 444.2C4480.98 436.6 4473.98 429.8 4465.58 423.8C4457.19 417.4 4447.99 412.4 4438 408.8C4428.4 405.2 4418.41 403.4 4408.01 403.4C4391.62 403.4 4377.03 407.4 4364.23 415.4C4351.84 423 4342.04 433.6 4334.85 447.2C4327.65 460.8 4324.05 476.4 4324.05 494C4324.05 511.2 4327.65 526.6 4334.85 540.2C4342.44 553.4 4352.64 564.2 4365.43 572.6C4378.23 580.6 4392.62 584.6 4408.61 584.6C4419.01 584.6 4428.8 583.2 4438 580.4C4447.19 577.2 4455.79 572.6 4463.78 566.6C4472.18 560.6 4479.78 553.4 4486.57 545L4532.75 601.4C4519.16 618.6 4500.37 632.6 4476.38 643.4C4452.39 653.8 4427 659 4400.21 659Z" fill="#292F36"/>
<path d="M4587.32 653V209H4671.28V400.4L4654.49 407.6C4658.89 393.2 4666.68 380.2 4677.88 368.6C4689.47 356.6 4703.26 347 4719.26 339.8C4735.25 332.6 4752.04 329 4769.63 329C4793.62 329 4813.61 333.8 4829.6 343.4C4846 353 4858.19 367.6 4866.19 387.2C4874.58 406.4 4878.78 430.2 4878.78 458.6V653H4793.62V465.2C4793.62 450.8 4791.62 438.8 4787.62 429.2C4783.63 419.6 4777.43 412.6 4769.03 408.2C4761.04 403.4 4751.04 401.4 4739.05 402.2C4729.45 402.2 4720.46 403.8 4712.06 407C4704.06 409.8 4697.07 414 4691.07 419.6C4685.47 425.2 4680.88 431.6 4677.28 438.8C4674.08 446 4672.48 453.8 4672.48 462.2V653H4630.5C4621.3 653 4613.11 653 4605.91 653C4598.71 653 4592.52 653 4587.32 653Z" fill="#292F36"/>
</svg>